<svg width="800" height="800" viewBox="0 0 32 32" fill="none" xmlns="http://www.w3.org/2000/svg"><path fill-rule="evenodd" clip-rule="evenodd" d="M16 16a4 4 0 1 1 8 0 4 4 0 0 1-8 0Z" fill="#1ABCFE"/><path fill-rule="evenodd" clip-rule="evenodd" d="M8 24a4 4 0 0 1 4-4h4v4a4 4 0 0 1-8 0Z" fill="#0ACF83"/><path fill-rule="evenodd" clip-rule="evenodd" d="M16 4v8h4a4 4 0 0 0 0-8h-4Z" fill="#FF7262"/><path fill-rule="evenodd" clip-rule="evenodd" d="M8 8a4 4 0 0 0 4 4h4V4h-4a4 4 0 0 0-4 4Z" fill="#F24E1E"/><path fill-rule="evenodd" clip-rule="evenodd" d="M8 16a4 4 0 0 0 4 4h4v-8h-4a4 4 0 0 0-4 4Z" fill="#A259FF"/></svg>